# xmcd
#
# Track frame offsets: 
#        150
#        18640
#        35040
#        48766
#        71687
#        87151
#        98741
#        111527
#        141331
#        153165
#        170306
#        195782
#        218943
#        239224
#        263432
#        295678
#        323326
#
# Disc length: 4677 seconds
#
# Revision: 3
# Processed by: cddbd v1.5.2PL0 Copyright (c) Steve Scherf et al.
# Submitted via: ExactAudioCopyFreeDBPlugin 1.0
#
DISCID=e9124311
DTITLE=Nina Simone - Seven Classic Albums
DYEAR=1900
DGENRE=
TTITLE0=Rags and Old Iron
TTITLE1=No Good Man
TTITLE2=Gin House Blues
TTITLE3=I'll Look Around
TTITLE4=I Love to Love
TTITLE5=Work Song
TTITLE6=Where Can I Go Without You
TTITLE7=Just Say I Love Him
TTITLE8=Memphis in June
TTITLE9=Forbidden Fruit
TTITLE10=Trouble in Mind
TTITLE11=Porgy
TTITLE12=Little Liza Jane
TTITLE13=You'd Be So Nice to Come Home to
TTITLE14=Flo Me La
TTITLE15=Nina's Blues
TTITLE16=In the Evening by the Moonlight
EXTD=
EXTT0=
EXTT1=
EXTT2=
EXTT3=
EXTT4=
EXTT5=
EXTT6=
EXTT7=
EXTT8=
EXTT9=
EXTT10=
EXTT11=
EXTT12=
EXTT13=
EXTT14=
EXTT15=
EXTT16=
PLAYORDER=
